<svg width="114" height="64" viewBox="0 0 114 64" fill="none" xmlns="http://www.w3.org/2000/svg">
<path d="M31.5811 64C48.9565 64 63.0421 49.6733 63.0421 32.0005C63.0421 14.3277 48.9565 0.00106812 31.5811 0.00106812C14.2057 0.00106812 0.120178 14.3277 0.120178 32.0005C0.120178 49.6733 14.2057 64 31.5811 64Z" fill="#44555F"/>
<path d="M21.5566 44.7907V19.2093H33.953C38.6073 19.2093 41.1134 22.1225 41.1134 25.7184C41.1134 28.9047 39.0548 31.0896 36.7276 31.5903C39.4575 32 41.6057 34.7311 41.6057 37.8719C41.6057 41.8775 39.0548 44.8362 34.2663 44.8362H21.5566V44.7907ZM36.5934 26.4467C36.5934 24.5805 35.2956 23.1239 33.1027 23.1239H25.9871V29.7241H33.1027C35.2956 29.7696 36.5934 28.404 36.5934 26.4467ZM37.0857 37.2801C37.0857 35.3683 35.7431 33.7297 33.2817 33.7297H25.9871V40.8761H33.2817C35.6536 40.8306 37.0857 39.5105 37.0857 37.2801Z" fill="white"/>
<path d="M81.9256 6.37258C95.7988 6.37258 107.121 17.8432 107.121 31.9995C107.121 46.1102 95.8436 57.6264 81.9256 57.6264C68.0523 57.6264 56.7299 46.1557 56.7299 31.9995C56.7299 17.8888 68.0076 6.37258 81.9256 6.37258ZM81.9256 0C64.5616 0 50.4646 14.3383 50.4646 31.9995C50.4646 49.6606 64.5616 63.9989 81.9256 63.9989C99.2895 63.9989 113.387 49.6606 113.387 31.9995C113.387 14.3383 99.2895 0 81.9256 0Z" fill="#F16522"/>
<path d="M56.7767 12.7914C52.8385 18.1625 50.4666 24.8082 50.4666 32.0002C50.4666 39.1921 52.7938 45.8378 56.7767 51.2089C58.1641 49.2972 59.3724 47.2488 60.3122 45.0639C58.0746 41.2404 56.7767 36.7796 56.7767 32.0002C56.7767 27.2207 58.0746 22.7599 60.3122 18.9364C59.3724 16.7515 58.1641 14.6576 56.7767 12.7914Z" fill="#F16522"/>
<path d="M89.5803 44.7911L87.7454 39.8296H76.1993L74.3645 44.7911H69.3074L79.1977 19.1642H84.7023L94.5926 44.7911H89.5803ZM81.9724 23.6705L77.4524 35.8695H86.4924L81.9724 23.6705Z" fill="#F16522"/>
</svg>
